<?xml version="1.0" encoding="UTF-8"?>
<svg version="1.1" xmlns="http://www.w3.org/2000/svg" width="35" height="36">
<path d="M0 0 C2.12472576 -0.05386629 4.24983652 -0.09273071 6.375 -0.125 C7.55835938 -0.14820312 8.74171875 -0.17140625 9.9609375 -0.1953125 C13 -0 13 -0 15 2 C17.78237655 1.59471099 17.78237655 1.59471099 20 0 C22.18639453 -0.07258946 24.37500389 -0.08373783 26.5625 -0.0625 C28.35880859 -0.04896484 28.35880859 -0.04896484 30.19140625 -0.03515625 C31.11824219 -0.02355469 32.04507813 -0.01195312 33 0 C32.25521619 4.51477196 30.76251203 7.31665063 28 11 C27.01 11.495 27.01 11.495 26 12 C28.64 12.33 31.28 12.66 34 13 C34 17.62 34 22.24 34 27 C31.69 27 29.38 27 27 27 C23.69445191 28.60810448 23.10679678 29.72766821 21.75 33.1875 C21.5025 34.115625 21.255 35.04375 21 36 C17.37 36 13.74 36 10 36 C9.6545092 28.51436593 9.97484757 23.37088414 15.1875 17.5625 C15.785625 17.046875 16.38375 16.53125 17 16 C16.40832031 15.82984375 15.81664062 15.6596875 15.20703125 15.484375 C8.95049046 13.56556641 4.64944167 11.78698765 1.1875 5.9375 C0 3 0 3 0 0 Z " fill="#BCB3FE" transform="translate(1,0)"/>
<path d="M0 0 C2.12472576 -0.05386629 4.24983652 -0.09273071 6.375 -0.125 C7.55835938 -0.14820312 8.74171875 -0.17140625 9.9609375 -0.1953125 C13 -0 13 -0 15 2 C17.78237655 1.59471099 17.78237655 1.59471099 20 0 C22.18639453 -0.07258946 24.37500389 -0.08373783 26.5625 -0.0625 C28.35880859 -0.04896484 28.35880859 -0.04896484 30.19140625 -0.03515625 C31.11824219 -0.02355469 32.04507813 -0.01195312 33 0 C32.11961891 5.2467156 30.21508989 9.0394098 26.1640625 12.625 C22.38906336 15.02355541 18.39470411 15.10851121 14 15 C8.00348653 13.23053701 3.98530117 10.21429714 0.6875 4.875 C0 3 0 3 0 0 Z " fill="#518CFF" transform="translate(1,0)"/>
<path d="M0 0 C5.45347364 1.26824968 8.01285356 3.2557086 11 8 C11.79934182 11.85343085 11.33272985 15.11924451 9.9375 18.8125 C7.25935726 21.83620955 4.79916084 22.66325822 1 24 C0.67 24 0.34 24 0 24 C0 16 0 8 0 0 Z " fill="#7757F8" transform="translate(0,9)"/>
</svg>
