<svg xmlns="http://www.w3.org/2000/svg" xmlns:xlink="http://www.w3.org/1999/xlink" width="48" height="48" id="money"><defs><linearGradient id="b" x1="1073.403" x2="1097.116" y1="516.451" y2="544.308" gradientTransform="translate(-1643.872 211.342) scale(1.53785)" gradientUnits="userSpaceOnUse" xlink:href="#a"></linearGradient><linearGradient id="a"><stop offset="0" stop-color="#16ff6a"></stop><stop offset="1" stop-color="#0090a5"></stop></linearGradient></defs><g transform="translate(0 -1004.362)"><rect width="48" height="48" y="1004.362" fill="url(#b)" rx="10.144" ry="10.144"></rect><path fill="#fff" d="M21.863 1014.362h4.274v2.445c0 .225.17.438.388.488 1.246.284 2.434.776 3.516 1.456.19.12.462.089.621-.07l1.727-1.727 3.02 3.022-1.721 1.72a.516.516 0 0 0-.07.62 11.364 11.364 0 0 1 1.445 3.52c.049.22.261.39.486.391H38v4.272h-2.445a.516.516 0 0 0-.489.389 11.369 11.369 0 0 1-1.455 3.517.516.516 0 0 0 .07.62l1.727 1.726-3.02 3.021-1.722-1.722a.515.515 0 0 0-.617-.07 11.364 11.364 0 0 1-3.522 1.445.515.515 0 0 0-.39.488v2.45h-4.274v-2.446a.516.516 0 0 0-.388-.486 11.358 11.358 0 0 1-3.516-1.455.516.516 0 0 0-.621.07l-1.727 1.726-3.02-3.021 1.722-1.72a.516.516 0 0 0 .07-.62 11.365 11.365 0 0 1-1.446-3.522.516.516 0 0 0-.486-.39H10v-4.272h2.445c.225 0 .44-.17.489-.39a11.359 11.359 0 0 1 1.455-3.516.516.516 0 0 0-.07-.619l-1.727-1.727 3.02-3.021 1.722 1.723a.515.515 0 0 0 .617.07 11.364 11.364 0 0 1 3.522-1.446.516.516 0 0 0 .39-.488zm2.137 6c-4.412 0-8 3.588-8 8s3.588 8 8 8 8-3.588 8-8-3.588-8-8-8zm0 1c3.872 0 7 3.128 7 7s-3.128 7-7 7-7-3.128-7-7 3.128-7 7-7zm-2.473 3v.01h-.023v1h1.027c.933 0 1.405.442 1.574.99h-2.578v1h2.578c-.169.55-.64.992-1.574.992h-1.028v1h.296l3.05 3.008.704-.71-2.395-2.364c1.085-.228 1.781-1.035 1.973-1.926h1.365v-1h-1.365c-.078-.36-.246-.7-.48-1h1.845v-1z" color="#000" font-family="sans-serif" font-weight="400" overflow="visible" style="line-height:normal;text-indent:0;text-align:start;text-decoration-line:none;text-transform:none;block-progression:tb"></path></g></svg>