<svg xmlns="http://www.w3.org/2000/svg" xmlns:xlink="http://www.w3.org/1999/xlink" width="48" height="48" id="shield"><defs><linearGradient id="b" x1="949.87" x2="974.39" y1="518.014" y2="544.657" gradientTransform="translate(-1446.352 215.475) scale(1.53785)" gradientUnits="userSpaceOnUse" xlink:href="#a"></linearGradient><linearGradient id="a"><stop offset="0" stop-color="#24f7bc"></stop><stop offset="1" stop-color="#24c4fc"></stop></linearGradient></defs><g transform="translate(-8 -1008.495)"><rect width="48" height="48" x="8.001" y="1008.495" fill="url(#b)" rx="10.144" ry="10.144"></rect><path style="line-height:normal;text-indent:0;text-align:start;text-decoration-line:none;text-decoration-style:solid;text-decoration-color:#000;text-transform:none;block-progression:tb;isolation:auto;mix-blend-mode:normal" fill="#fff" d="m32.001 1018.516-3.404 1.088c-.679 1.694-2.247 2.887-4.096 2.887-.862 0-1.662-.35-2.383-.813l-2.117.676v13.617c-.016 3.803 2.923 6.418 5.98 8.117 2.967 1.65 5.847 2.34 6.02 2.381.173-.04 3.045-.731 6.008-2.38 3.053-1.7 5.992-4.316 5.992-8.12v-13.615l-2.113-.676c-.722.463-1.523.808-2.385.809H39.5c-1.846 0-3.412-1.192-4.09-2.883l-3.41-1.092zm.002 8.701 1.762 3.405 3.783.627-2.693 2.728.572 3.79-3.426-1.718-3.428 1.717.574-3.79-2.691-2.73 3.783-.624 1.764-3.405z" color="#000" font-family="sans-serif" font-weight="400" overflow="visible"></path></g></svg>