<svg xmlns="http://www.w3.org/2000/svg" enable-background="new 0 0 32 32" viewBox="0 0 32 32" id="Wallet"><path d="M24,21c0,0.552,0.448,1,1,1h1c0.552,0,1-0.448,1-1s-0.448-1-1-1h-1C24.448,20,24,20.448,24,21z" fill="#8f81e1" class="color000000 svgShape"></path><path d="M30,17h-1v-3c0-1.3-0.84-2.4-2-2.82V8c0-1.65-1.35-3-3-3h-1V4c0-1.65-1.35-3-3-3h-8v9h11V7h1c0.55,0,1,0.45,1,1v3H5c-1.1,0-2-0.9-2-2s0.9-2,2-2v3h5V1H8C6.35,1,5,2.35,5,4v1C2.79,5,1,6.79,1,9v19c0,1.65,1.35,3,3,3h22c1.65,0,3-1.35,3-3v-2.417l-2-0.5h2V25h1c0.55,0,1-0.45,1-1v-6C31,17.45,30.55,17,30,17z M29,23h-4c-1.1,0-2-0.9-2-2s0.9-2,2-2h4V23z" fill="#8f81e1" class="color000000 svgShape"></path></svg>