<svg xmlns="http://www.w3.org/2000/svg" xmlns:xlink="http://www.w3.org/1999/xlink" width="80" height="80" id="coin"><defs><linearGradient id="b" x1="1056.035" x2="1031.176" y1="544.13" y2="517.701" gradientTransform="translate(-2636.228 -1321.7) scale(2.56309)" gradientUnits="userSpaceOnUse" xlink:href="#a"></linearGradient><linearGradient id="a"><stop offset="0" stop-color="#5a5a5a"></stop><stop offset="1" stop-color="#656e85"></stop></linearGradient></defs><rect width="80" height="80" fill="url(#b)" rx="16.907" ry="16.907"></rect><path fill="#fff" d="M27 22c-.6 0-1 .4-1 1v2c0 .5.5 1 1 1h12c.6 0 1-.5 1-1v-2c0-.6-.4-1-1-1H27zm0 6c-.6 0-1 .5-1 1v2c0 .6.4 1 1 1h12c.6 0 1-.4 1-1v-2c0-.5-.5-1-1-1H27zm0 6c-.6 0-1 .4-1 1v2c0 .6.4 1 1 1h12c.6 0 1-.4 1-1v-2c0-.6-.4-1-1-1H27zm15 2v1c0 .3-.1.7-.2 1H56c.6 0 1 .4 1 1 0 1.1.9 2 2 2 .3 0 .5.1.7.3.2.2.3.4.3.7v8c0 .6-.4 1-1 1-1.1 0-2 .9-2 2 0 .3-.1.5-.3.7-.2.2-.4.3-.7.3H42v1c0 .4-.1.7-.2 1H61c.6 0 1-.4 1-1V37c0-.6-.4-1-1-1H42zm-16 4c-4.4 0-8 3.6-8 8s3.6 8 8 8 8-3.6 8-8-3.6-8-8-8zm6 0c1.4 1 2.5 2.4 3.2 4H39c.6 0 1-.4 1-1v-2c0-.5-.5-1-1-1h-7zm9.8 0c.1.3.2.6.2 1v.5c2.5 0 4.5 2 4.5 4.5 0 2.3-1.7 4.1-3.9 4.4-.2.4-.6.8-1 1.1.1.1.1.3.2.4h13.3c.4-1.4 1.5-2.5 2.9-2.9v-6.2c-1.4-.3-2.5-1.4-2.9-2.8H41.8ZM26 42c.6 0 1 .4 1 1v.2c1.2.4 2 1.5 2 2.8 0 .6-.4 1-1 1s-1-.4-1-1c0-.5-.4-1-1-1-.5 0-1 .5-1 1 0 .6.4 1 1 1 1.7 0 3 1.3 3 3 0 1.3-.8 2.4-2 2.8v.2c0 .6-.4 1-1 1s-1-.4-1-1v-.2c-1.2-.4-2-1.5-2-2.8 0-.6.4-1 1-1s1 .4 1 1c0 .5.4 1 1 1 .5 0 1-.5 1-1s-.4-1-1-1c-1.7 0-3-1.3-3-3 0-1.3.8-2.4 2-2.8V43c0-.6.4-1 1-1zm16 1.5c-.1.4-.2.7-.4 1 .8.5 1.4 1.4 1.5 2.5v1.3c.9-.4 1.5-1.3 1.5-2.3 0-1.4-1.1-2.5-2.5-2.5H42Zm12 .5c1.1 0 2 .9 2 2s-.9 2-2 2-2-.9-2-2 .9-2 2-2zm-18.2 2c.1.6.2 1.3.2 2s-.1 1.4-.2 2H40c.6 0 1-.4 1-1v-2c0-.6-.4-1-1-1h-4.2zm-.6 6c-.7 1.6-1.8 3-3.2 4h7c.6 0 1-.4 1-1v-2c0-.5-.5-1-1-1h-3.8z"></path></svg>