<svg xmlns="http://www.w3.org/2000/svg" xmlns:xlink="http://www.w3.org/1999/xlink" width="80" height="80" id="note"><defs><linearGradient id="b" x1="868.253" x2="937.656" y1="521.354" y2="588.736" gradientTransform="translate(-2211.614 -1321.7) scale(2.56309)" gradientUnits="userSpaceOnUse" xlink:href="#a"></linearGradient><linearGradient id="a"><stop offset="0" stop-color="#24f3d2"></stop><stop offset=".394" stop-color="#0674f0"></stop><stop offset=".507" stop-color="#6961b5"></stop><stop offset=".813" stop-color="#f34660"></stop><stop offset="1" stop-color="#ee078d"></stop></linearGradient></defs><rect width="80" height="80" fill="url(#b)" rx="16.907" ry="16.907"></rect><path fill="#fff" d="M21 31c-.6 0-1 .4-1 1v18c0 .6.4 1 1 1h38c.6 0 1-.4 1-1V32c0-.6-.4-1-1-1H21zm5 2h28c.6 0 1 .4 1 1 0 1.1.9 2 2 2 .3 0 .5.1.7.3.2.2.3.5.3.7v8c0 .6-.4 1-1 1-1.1 0-2 .9-2 2 0 .3-.1.5-.3.7-.2.2-.5.3-.7.3H26c-.6 0-1-.4-1-1 0-1.1-.9-2-2-2-.3 0-.5-.1-.7-.3-.2-.2-.3-.5-.3-.7v-8c0-.6.4-1 1-1 1.1 0 2-.9 2-2 0-.3.1-.5.3-.7.2-.2.4-.3.7-.3Zm.9 2c-.4 1.4-1.5 2.5-2.9 2.9v6.2c1.4.4 2.5 1.5 2.9 2.9h26.2c.4-1.4 1.5-2.5 2.9-2.9v-6.2c-1.4-.4-2.5-1.5-2.9-2.9H26.9ZM40 36.5c2.5 0 4.5 2 4.5 4.5s-2 4.5-4.5 4.5-4.5-2-4.5-4.5 2-4.5 4.5-4.5zm0 2a2.5 2.5 0 0 0-2.5 2.5 2.5 2.5 0 0 0 2.5 2.5 2.5 2.5 0 0 0 2.5-2.5 2.5 2.5 0 0 0-2.5-2.5ZM28 39c1.1 0 2 .9 2 2s-.9 2-2 2-2-.9-2-2 .9-2 2-2zm24 0c1.1 0 2 .9 2 2s-.9 2-2 2-2-.9-2-2 .9-2 2-2z"></path></svg>