<svg xmlns="http://www.w3.org/2000/svg" xmlns:xlink="http://www.w3.org/1999/xlink" width="80" height="80" id="wallet"><defs><linearGradient id="b" x1="1073.403" x2="1097.116" y1="516.451" y2="544.308" gradientTransform="translate(-2739.786 -1321.7) scale(2.56309)" gradientUnits="userSpaceOnUse" xlink:href="#a"></linearGradient><linearGradient id="a"><stop offset="0" stop-color="#16ff6a"></stop><stop offset="1" stop-color="#0090a5"></stop></linearGradient></defs><rect width="80" height="80" fill="url(#b)" rx="16.907" ry="16.907"></rect><path fill="#fff" d="M36.814 18.242c-.389.033-.764.333-.914.858l-5.7 17.1h2.1l3.9-11.7c.2-.5.8-.8 1.3-.6 1 .3 2.2-.3 2.5-1.3.1-.3.3-.5.5-.6.3-.2.5-.2.8-.1l7.6 2.5c.5.2.8.8.6 1.3-.3 1 .3 2.2 1.3 2.5.3.1.5.3.6.5.2.3.2.5.1.8l-2.2 6.6h2.1L55 25.299c0-.3 0-.599-.1-.799-.1-.2-.3-.4-.6-.5l-17.1-5.701a.838.838 0 0 0-.386-.057zM24 20c-.3 0-.5.099-.7.299-.2.2-.3.401-.3.701v16c.6-.4 1.3-.8 2-.9V26c0-.6.4-1 1-1 1.1 0 2-.9 2-2 0-.3.1-.501.3-.701.2-.2.4-.299.7-.299h3.8l.7-2H24zm17.6 3.9c-.8 1.2-2.2 1.9-3.6 1.8L34.5 36h12.6l2.1-6.4c-1.1-.9-1.8-2.3-1.7-3.7l-5.9-2zm-11.7.1c-.4 1.4-1.5 2.5-2.9 2.9V36h1.2l4-12h-2.3zm13.621 2.729c.127.01.254.032.38.07 1 .3 1.598 1.5 1.298 2.5-.3 1-1.5 1.6-2.5 1.3-1-.3-1.699-1.5-1.299-2.5.35-.874 1.236-1.443 2.121-1.37zM26 38c-1.7 0-3 1.3-3 3v18c0 1.7 1.3 3 3 3h28c1.7 0 3-1.3 3-3h-.1v-1h-8.1c-2.7 0-4.9-2.2-4.9-5s2.2-5 4.9-5h8.1v-7c0-1.7-1.3-3-3-3H26zm22.9 12c-1.6 0-2.9 1.3-2.9 3s1.3 3 2.9 3H57v-6h-8.1Zm.1 2c.5 0 1 .4 1 1-.1.5-.5 1-1 1s-1-.4-1-1 .4-1 1-1z"></path></svg>